<svg xmlns="http://www.w3.org/2000/svg" xmlns:xlink="http://www.w3.org/1999/xlink" width="110" height="55" viewBox="0 0 110 55">
  <defs>
    <clipPath id="clip-path">
      <rect id="Rectangle_407" data-name="Rectangle 407" width="110" height="55" transform="translate(625 317)" fill="#fff"/>
    </clipPath>
    <clipPath id="clip-lenaelse-studio-logo-white">
      <rect width="110" height="55"/>
    </clipPath>
  </defs>
  <g id="lenaelse-studio-logo-white" clip-path="url(#clip-lenaelse-studio-logo-white)">
    <g id="Mask_Group_30" data-name="Mask Group 30" transform="translate(-625 -317)" clip-path="url(#clip-path)">
      <path id="Union_32" data-name="Union 32" d="M92.19,34.837a6.209,6.209,0,0,1,.154-1.358c.6-2.8,1.806-3.626,4.466-3.626,2.184,0,3.3.742,3.3,2.562a6.183,6.183,0,0,1-.154,1.344c-.6,2.814-1.82,3.682-4.48,3.682C93.3,37.441,92.19,36.671,92.19,34.837Zm1.386-1.218a5.891,5.891,0,0,0-.154,1.19c0,1.2.658,1.68,2.128,1.68,1.89,0,2.73-.77,3.178-2.87a5.89,5.89,0,0,0,.154-1.19c0-1.19-.658-1.624-2.128-1.624C94.864,30.805,94.024,31.519,93.576,33.619Zm-4.368,3.738,1.582-7.42h1.176l-1.582,7.42Zm-4.662,0c-1.876,0-2.6-.868-2.6-2.352a6.7,6.7,0,0,1,.182-1.5c.49-2.31,1.274-3.57,3.864-3.57h2.226l.5-2.38h1.176L88.06,36.2c-.154.728-.392,1.162-1.386,1.162Zm-1.19-3.71a6.98,6.98,0,0,0-.182,1.372c0,.91.406,1.386,1.666,1.386h1.512c.392,0,.518-.154.6-.532L88,30.9H86C84.224,30.9,83.72,31.9,83.356,33.647Zm-6.93,3.71c-1.372,0-2.2-.616-2.2-1.778a3.45,3.45,0,0,1,.07-.63l1.064-5.012h1.176l-1.022,4.8a3.321,3.321,0,0,0-.07.6c0,.658.322,1.064,1.2,1.064h2.114c.28,0,.448-.1.532-.476l1.274-5.992h1.176l-1.316,6.2c-.168.784-.448,1.218-1.4,1.218Zm-4.41,0c-1.386,0-1.946-.686-1.946-1.666a3.293,3.293,0,0,1,.084-.714l.882-4.088H69.944l.2-.952h1.092l.5-2.38h1.176l-.5,2.38H74.48l-.2.952H72.212l-.854,4.018a2.377,2.377,0,0,0-.07.588c0,.686.42.91,1.33.91h.49l-.21.952Zm-11.942,0,.224-1.064h5.474c.742,0,1.162-.518,1.344-1.372a2.186,2.186,0,0,0,.056-.406c0-.378-.2-.742-.868-.98l-3.612-1.288a1.754,1.754,0,0,1-1.232-1.806,3.459,3.459,0,0,1,.07-.728,2.4,2.4,0,0,1,2.716-2.156h5.306l-.224,1.064H64.26c-.742,0-1.19.35-1.386,1.26a3.169,3.169,0,0,0-.07.49.907.907,0,0,0,.714.882l3.444,1.232a1.934,1.934,0,0,1,1.554,1.89,3.012,3.012,0,0,1-.056.686c-.28,1.33-.9,2.3-2.548,2.3Zm-8.862,0a1.476,1.476,0,0,1-1.68-1.61,3.3,3.3,0,0,1,.07-.8c.308-1.47.938-2.114,2.436-2.114h3.29l.182-.882a1.564,1.564,0,0,0,.042-.336c0-.448-.252-.728-.854-.728H51.086l.2-.952h3.766c1.176,0,1.708.658,1.708,1.526a2.184,2.184,0,0,1-.07.5l-.91,4.27a1.227,1.227,0,0,1-1.4,1.12Zm-.378-2.268a3.32,3.32,0,0,0-.07.588c0,.448.182.728.714.728h2.7a.46.46,0,0,0,.476-.378l.476-2.24H52.038C51.31,33.787,51,34.291,50.834,35.089Zm-8.918,2.268.21-.952H46.34a.982.982,0,0,0,1.092-.882,2.29,2.29,0,0,0,.042-.28c0-.56-.63-.728-1.61-.98l-1.288-.336c-1.022-.266-1.638-.826-1.638-1.75a2.337,2.337,0,0,1,.042-.532c.266-1.246.966-1.708,2.408-1.708h4.018l-.2.952H45.318a.975.975,0,0,0-1.134.9,1.231,1.231,0,0,0-.042.294c0,.574.476.756,1.148.938l1.386.378c1.134.308,2.03.672,2.03,1.736a2.038,2.038,0,0,1-.042.49c-.252,1.148-.686,1.736-2.24,1.736Zm-2.408,0,2.086-9.8H42.77l-2.086,9.8Zm-7.434,0c-.714,0-1.12-.378-1.12-1.008A1.836,1.836,0,0,1,31,35.971l1.5-7.028c.224-1.05.672-1.386,1.666-1.386h6.062L40,28.621H34.51c-.546,0-.686.168-.784.658l-.546,2.534h5.992l-.224,1.064H32.956l-.574,2.744a1.555,1.555,0,0,0-.042.322c0,.252.126.35.532.35h5.544l-.224,1.064Zm-7.182,0a1.476,1.476,0,0,1-1.68-1.61,3.3,3.3,0,0,1,.07-.8c.308-1.47.938-2.114,2.436-2.114h3.29l.182-.882a1.565,1.565,0,0,0,.042-.336c0-.448-.252-.728-.854-.728H24.766l.2-.952h3.766c1.176,0,1.708.658,1.708,1.526a2.171,2.171,0,0,1-.07.5l-.91,4.27a1.227,1.227,0,0,1-1.4,1.12Zm-.378-2.268a3.32,3.32,0,0,0-.07.588c0,.448.182.728.714.728h2.7a.46.46,0,0,0,.476-.378l.476-2.24H25.718C24.99,33.787,24.682,34.291,24.514,35.089Zm-4.032,2.268,1.022-4.8a2.688,2.688,0,0,0,.084-.63c0-.644-.336-1.036-1.2-1.036h-2.03c-.28,0-.462.1-.546.476l-1.274,5.992H15.358l1.316-6.2c.168-.77.448-1.218,1.4-1.218h2.52c1.372,0,2.2.616,2.2,1.778a3.449,3.449,0,0,1-.07.63l-1.064,5.012Zm-10.178,0a1.964,1.964,0,0,1-2.24-2.226,7.626,7.626,0,0,1,.2-1.6c.574-2.73,1.554-3.682,4.06-3.682,1.708,0,2.982.49,2.982,2.072a3.41,3.41,0,0,1-.07.812c-.182.854-.42,1.3-1.4,1.3H9.422A5.929,5.929,0,0,0,9.3,35.1c0,.742.28,1.3,1.316,1.3h3.626l-.2.952Zm-.672-4.27H13.58a.426.426,0,0,0,.42-.378v-.056a2.781,2.781,0,0,0,.07-.546c0-.966-.742-1.3-1.806-1.3C10.738,30.805,10,31.393,9.632,33.087Zm-8.6,4.27C.42,37.357,0,37.049,0,36.489a1.246,1.246,0,0,1,.042-.308l1.834-8.624h1.3L1.442,35.705a1.541,1.541,0,0,0-.028.238c0,.252.14.35.518.35H7.364L7.14,37.357Zm89.978-8.512.266-1.288h1.2l-.266,1.288ZM18.407,22.036l.039-.155.082-.326h-.656l.912-4.012H19.3l-.5,2.2-.115.5.473-.2.5-.216.123-.053.029-.13.624-2.736.073-.32H12.977L16.366,1.931,18.231,0h4.141L22.16.9l-.076.322h5.066l-1.8,7.8H18.915l-.044.208-.121.576-.066.316h6.641l-.454,1.948H18.225l-.048.2-.144.6-.078.323h6.914l-2.061,8.836Zm1.134-15.7-.118.576-.064.315h2.407l.043-.209.12-.576.066-.315h-2.41Zm.508-2.17-.144.576-.081.325h2.445l.043-.209.12-.576.066-.315H20.1ZM49.7,18.96h7.15l.048-.2.144-.6.078-.323h-6.8l.48-2.092h6.793l.046-.205.144-.648.071-.319H51.042L52.623,7.8h6.554l.046-.205.144-.648.071-.319H52.455l.627-2.788h7.01l.045-.206.12-.553.069-.317H53.632L54.208.216H75.271l-.405,1.776-1.328.772H67.645l-.051.2-.144.553-.085.328h7.474l-.646,2.788H66.749l-.046.205-.144.648-.071.319h6.959l-1.559,6.772H65.142l-.046.205-.144.648-.071.319h6.861l-.479,2.092H64.4l-.048.2-.144.6-.078.323h7.2l-.673,2.955H49.024Zm14.992-7.187-.12.5-.077.322h2.555l.048-.2.12-.5.077-.322H64.737Zm-7.849,0-.119.5-.075.322h2.528l.048-.2.12-.5.077-.323H56.887Zm8.306-2.017-.12.5-.076.322H67.5l.048-.2.12-.5.076-.322H65.193Zm-7.848,0-.12.5-.077.322h2.555l.048-.2.12-.5.077-.322H57.345ZM1.337,21.916l1.509-6.495.075-.321H2.1L3.484,9.062,4.991,6.9l.286-.412H4.384L5.632,1.008H7.866L7.911.8,8.082.024h4.6L12.536.69l-.07.318h3.067L14.288,6.316H11.009l.142-.615.074-.321H10.156l-.078.115L8.471,7.871l-.277.409H10l.045-.207.148-.682H13.2l-.138.564-.078.324h.794l-.547,2.309h-.814l-.049.2-.216.864-.082.326h.749L12.368,13.9h-.721l-.047.2-.192.84-.074.321H12.1l-.455,1.972H10.88l-.048.2-.216.912-.076.322H11.4l-.764,3.243Zm4.792-4.479-.217.912-.077.323H7.214l.048-.2.216-.912.076-.322H6.177ZM6.9,14.1l-.193.84-.074.321H8.007l.047-.2.192-.84.073-.32H6.943Zm.793-3.317-.217.864-.082.326H8.776l.045-.205.193-.864.071-.319H7.739ZM30.667,21.869l-.882-1.324-.174-.261-.226.219-1.413,1.367H24.882l.8-3.395,1.359-1.291.154-.146-.111-.181-.4-.652,2.255-9.784.074-.321H28.43l1.033-4.516h.6l.045-.205L30.353.288h5.367l-.217.977-.071.319h2.685L34.634,16.616l-.877.81-.163.151.122.186.491.746-.768,3.36ZM32.481,6.3,30.8,13.6l-.025.11.062.094.24.36.174.26.226-.217.6-.576.056-.054.017-.076,1.633-7.08.074-.321h-1.33ZM17.128,17.544h.685L16.832,21.8h-.665Zm-1.967,0h1L15.176,21.8h-1Zm-2.473,0h1.455L13.182,21.8H11.705ZM39.518.48H51.533L50.311,5.788H48.847l-.047.2-.216.936-.074.321h.936l-1.8,7.8h-.939l-.045.206-.193.887-.069.318h1.46l-1.2,5.212H34.625Zm3.451,5.512L40.617,16.144l-.074.321h2.191l.049-.2L43,15.378l.079-.324h-.965l1.8-7.8h.96l.047-.2.216-.936.074-.321H43.016Zm2.375,4.25-.432,1.921-.072.319h1.326l.048-.2.456-1.921.076-.322H45.39ZM73.025,21.581l1.415-6.148h6.6l.047-.2,1.872-8.088.074-.321h-6.1l1.391-6H98.957l-1.39,6H91.424l-.047.2L89.5,15.112l-.074.321h6.792l-1.414,6.148Z" transform="translate(630.279 325.643)" fill="#fff"/>
    </g>
  </g>
</svg>
