<svg xmlns="http://www.w3.org/2000/svg" xmlns:xlink="http://www.w3.org/1999/xlink" width="420" height="210" viewBox="0 0 420 210">
  <defs>
    <clipPath id="clip-path">
      <rect id="Rectangle_407" data-name="Rectangle 407" width="420" height="210" transform="translate(625 317)" fill="#fff"/>
    </clipPath>
    <linearGradient id="linear-gradient" x2="1" y2="1" gradientUnits="objectBoundingBox">
      <stop offset="0" stop-color="#618bfb"/>
      <stop offset="1" stop-color="#ff56b4"/>
    </linearGradient>
    <clipPath id="clip-lenaelse-studio-logo-brand">
      <rect width="420" height="210"/>
    </clipPath>
  </defs>
  <g id="lenaelse-studio-logo-brand" clip-path="url(#clip-lenaelse-studio-logo-brand)">
    <g id="Mask_Group_30" data-name="Mask Group 30" transform="translate(-625 -317)" clip-path="url(#clip-path)">
      <path id="Union_32" data-name="Union 32" d="M352,133.015a23.706,23.706,0,0,1,.588-5.185c2.3-10.691,6.9-13.845,17.052-13.845,8.339,0,12.615,2.833,12.615,9.782a23.608,23.608,0,0,1-.588,5.132c-2.3,10.744-6.949,14.059-17.105,14.059C356.221,142.958,352,140.018,352,133.015Zm5.292-4.65a22.492,22.492,0,0,0-.588,4.544c0,4.6,2.512,6.414,8.125,6.414,7.216,0,10.423-2.94,12.134-10.958a22.49,22.49,0,0,0,.588-4.543c0-4.544-2.512-6.2-8.124-6.2C362.208,117.62,359,120.346,357.29,128.364Zm-16.678,14.272,6.041-28.33h4.49l-6.041,28.33Zm-17.8,0c-7.163,0-9.942-3.314-9.942-8.98a25.566,25.566,0,0,1,.695-5.719c1.871-8.82,4.865-13.631,14.754-13.631h8.5l1.924-9.087h4.49l-7,32.981c-.588,2.779-1.5,4.436-5.292,4.436Zm-4.543-14.165a26.651,26.651,0,0,0-.7,5.239c0,3.474,1.551,5.292,6.361,5.292h5.773c1.5,0,1.977-.589,2.3-2.031l4.009-18.977h-7.644C321.583,117.994,319.658,121.79,318.269,128.471Zm-26.46,14.165c-5.239,0-8.392-2.352-8.392-6.789a13.171,13.171,0,0,1,.267-2.4l4.063-19.137h4.49l-3.9,18.335a12.679,12.679,0,0,0-.267,2.3c0,2.512,1.229,4.063,4.6,4.063h8.071c1.069,0,1.711-.374,2.031-1.818l4.865-22.878h4.49l-5.025,23.68c-.642,2.993-1.71,4.65-5.345,4.65Zm-16.839,0c-5.292,0-7.43-2.619-7.43-6.36a12.572,12.572,0,0,1,.32-2.727l3.368-15.609h-4.17l.749-3.634h4.169l1.925-9.087h4.49l-1.925,9.087h7.912l-.749,3.634h-7.911l-3.261,15.341a9.076,9.076,0,0,0-.267,2.245c0,2.619,1.6,3.475,5.078,3.475h1.871l-.8,3.634Zm-45.6,0,.856-4.063h20.9c2.833,0,4.436-1.977,5.132-5.238a8.346,8.346,0,0,0,.213-1.551c0-1.443-.748-2.832-3.314-3.741l-13.792-4.918c-2.993-1.069-4.7-3.315-4.7-6.9a13.206,13.206,0,0,1,.267-2.78c1.123-5.345,3.9-8.231,10.371-8.231h20.259l-.855,4.063H245.356c-2.833,0-4.543,1.336-5.292,4.811a12.1,12.1,0,0,0-.267,1.871c0,1.337.642,2.619,2.726,3.368l13.15,4.7c3.421,1.229,5.934,3.155,5.934,7.216a11.5,11.5,0,0,1-.214,2.62c-1.069,5.078-3.421,8.766-9.728,8.766Zm-33.836,0c-4.223,0-6.414-2.191-6.414-6.147a12.594,12.594,0,0,1,.267-3.046c1.175-5.613,3.581-8.072,9.3-8.072h12.562l.695-3.368a5.97,5.97,0,0,0,.16-1.283c0-1.711-.962-2.78-3.261-2.78H195.055l.749-3.634h14.379c4.49,0,6.521,2.512,6.521,5.827a8.339,8.339,0,0,1-.267,1.924l-3.475,16.3c-.588,2.886-2.031,4.276-5.345,4.276Zm-1.444-8.659a12.675,12.675,0,0,0-.267,2.245c0,1.711.7,2.78,2.727,2.78H206.87a1.755,1.755,0,0,0,1.817-1.444l1.817-8.553H198.69C195.911,129.006,194.735,130.93,194.093,133.978Zm-34.051,8.659.8-3.634h16.09c2.352,0,3.688-1.016,4.17-3.368a8.746,8.746,0,0,0,.16-1.069c0-2.138-2.406-2.78-6.147-3.742l-4.919-1.283c-3.9-1.016-6.254-3.154-6.254-6.682a8.922,8.922,0,0,1,.16-2.031c1.016-4.757,3.689-6.521,9.194-6.521h15.341l-.748,3.634H173.032c-2.619,0-3.8.909-4.33,3.422a4.7,4.7,0,0,0-.16,1.122c0,2.191,1.817,2.886,4.383,3.581l5.292,1.444c4.33,1.176,7.752,2.566,7.752,6.629a7.783,7.783,0,0,1-.161,1.871c-.962,4.383-2.619,6.628-8.553,6.628Zm-9.194,0,7.964-37.418h4.49l-7.964,37.418Zm-28.384,0c-2.727,0-4.277-1.443-4.277-3.848a7.009,7.009,0,0,1,.16-1.444l5.719-26.833c.856-4.009,2.566-5.292,6.361-5.292h23.146l-.856,4.063H131.765c-2.084,0-2.619.641-2.993,2.512l-2.084,9.675h22.878l-.855,4.063H125.832l-2.191,10.478a5.936,5.936,0,0,0-.16,1.229c0,.962.481,1.336,2.031,1.336h21.168l-.855,4.063Zm-27.423,0c-4.223,0-6.414-2.191-6.414-6.147a12.594,12.594,0,0,1,.267-3.046c1.176-5.613,3.582-8.072,9.3-8.072h12.561l.695-3.368a5.976,5.976,0,0,0,.161-1.283c0-1.711-.963-2.78-3.261-2.78H94.561l.748-3.634h14.379c4.49,0,6.521,2.512,6.521,5.827a8.291,8.291,0,0,1-.267,1.924l-3.474,16.3c-.588,2.886-2.031,4.276-5.346,4.276ZM93.6,133.978a12.675,12.675,0,0,0-.267,2.245c0,1.711.695,2.78,2.726,2.78h10.317a1.755,1.755,0,0,0,1.817-1.444l1.818-8.553H98.2C95.416,129.006,94.241,130.93,93.6,133.978Zm-15.4,8.659,3.9-18.335a10.264,10.264,0,0,0,.32-2.4c0-2.46-1.282-3.956-4.6-3.956H70.078c-1.068,0-1.764.374-2.084,1.818L63.13,142.637h-4.49l5.025-23.68c.642-2.94,1.711-4.65,5.346-4.65h9.621c5.239,0,8.393,2.352,8.393,6.789a13.169,13.169,0,0,1-.267,2.4l-4.063,19.137Zm-38.861,0c-6.254,0-8.553-3.314-8.553-8.5a29.119,29.119,0,0,1,.748-6.094c2.192-10.424,5.934-14.059,15.5-14.059,6.521,0,11.386,1.871,11.386,7.912a13.019,13.019,0,0,1-.267,3.1c-.7,3.261-1.6,4.972-5.346,4.972H35.975a22.638,22.638,0,0,0-.481,4.063c0,2.833,1.068,4.972,5.025,4.972H54.364l-.749,3.634Zm-2.566-16.3H51.851a1.626,1.626,0,0,0,1.6-1.443v-.214a10.618,10.618,0,0,0,.267-2.084c0-3.689-2.833-4.972-6.9-4.972C41,117.62,38.166,119.866,36.777,126.333Zm-32.821,16.3C1.6,142.637,0,141.461,0,139.323a4.757,4.757,0,0,1,.16-1.176l7-32.927h4.971l-6.628,31.11a5.885,5.885,0,0,0-.107.909c0,.962.535,1.336,1.977,1.336H28.117l-.855,4.063Zm343.552-32.5,1.015-4.918h4.6l-1.015,4.918Zm-277.226-26,.149-.592.312-1.243h-2.5l3.483-15.319H73.7l-1.921,8.4L71.345,77.3l1.807-.775,1.924-.825.468-.2.112-.5,2.381-10.446.279-1.222H49.55L62.489,7.375,69.61,0H85.422l-.81,3.444-.29,1.228h19.344L96.8,34.47H72.221l-.167.795-.461,2.2-.252,1.205H96.7L94.964,46.11H69.586l-.185.766-.55,2.292-.3,1.234h26.4l-7.87,33.737Zm4.331-59.958-.452,2.2-.246,1.2h9.192l.165-.8.457-2.2.25-1.2h-9.2Zm1.939-8.287L76,18.094l-.311,1.242h9.334l.166-.8.456-2.2.25-1.2H76.741Zm113.2,56.5h27.3l.184-.767.55-2.292.3-1.233H192.132l1.832-7.989H219.9l.175-.783.55-2.474.271-1.217H194.886l6.038-25.855H225.95l.175-.783.55-2.474.271-1.217H200.282l2.392-10.646H229.44l.17-.788.457-2.111.263-1.21H204.775l2.2-9.729H287.4L285.85,7.607l-5.072,2.948h-22.5l-.2.747-.55,2.11-.326,1.253h28.535L283.279,25.31H254.861l-.175.783-.55,2.474-.271,1.217h26.57l-5.954,25.855H248.724l-.175.783L248,58.9l-.271,1.217h26.2L272.1,68.1H245.9l-.185.766-.55,2.291-.3,1.235h27.506L269.8,83.677l-82.621,0Zm57.242-27.44-.456,1.924-.292,1.23H256l.183-.769.457-1.924.292-1.231h-9.755Zm-29.97,0-.453,1.924-.288,1.229h9.651l.185-.768.46-1.924.294-1.232H217.2Zm31.712-7.7-.457,1.924-.292,1.231h9.755l.183-.769.457-1.923.292-1.231h-9.755Zm-29.965,0-.457,1.924-.292,1.231h9.755l.184-.769.456-1.923.292-1.231h-9.755ZM5.1,83.679l5.762-24.8.285-1.226H8.035L13.3,34.6l5.755-8.269,1.094-1.571h-3.41l4.766-20.91h8.528l.173-.787.653-2.97H48.423l-.558,2.542L47.6,3.849H59.308L54.554,24.116H42.034l.542-2.349.284-1.226H38.777l-.3.439-6.136,9.072-1.057,1.562h6.9l.17-.789.564-2.6H50.408l-.526,2.155-.3,1.238h3.031l-2.089,8.815H47.417l-.189.757-.824,3.3-.311,1.243h2.86l-1.729,7.347H44.471l-.178.777-.734,3.206-.281,1.224h2.933l-1.738,7.528h-2.93l-.183.77-.824,3.484L40.243,71.3h3.3L40.627,83.679Zm18.3-17.1-.829,3.484-.293,1.232h5.263l.182-.77.825-3.484.291-1.23H23.585ZM26.33,53.851,25.6,57.057l-.282,1.224h5.26l.178-.778.732-3.206.279-1.222H26.51ZM29.36,41.184l-.829,3.3-.312,1.244h5.29l.174-.783.735-3.3.271-1.217H29.55ZM117.094,83.5l-3.369-5.055-.665-1-.862.834L106.8,83.5H95l3.036-12.962,5.188-4.928.587-.558-.422-.69-1.526-2.489,8.609-37.357.283-1.224h-2.2L112.5,6.047h2.3l.174-.783.926-4.164h20.494l-.829,3.731-.271,1.217h10.25l-13.3,57.4-3.347,3.091-.623.575.465.709,1.873,2.849L127.676,83.5Zm6.925-59.431L117.6,51.928l-.1.421.238.358.918,1.375.664.994.861-.828,2.289-2.2.215-.207.066-.29,6.234-27.034.283-1.224H124.2ZM65.4,66.988h2.617L64.266,83.222l-2.539,0Zm-7.51,0H61.7L57.944,83.222l-3.811,0Zm-9.441,0H54L50.332,83.222l-5.639,0ZM150.888,1.832h45.876L192.1,22.1h-5.589l-.179.775-.825,3.574-.283,1.225h3.574l-6.869,29.8h-3.584l-.171.788-.735,3.388-.263,1.212h5.575l-4.581,19.9-45.96.005ZM164.065,22.88l-8.98,38.762-.283,1.226h8.367l.185-.764.825-3.388.3-1.236H160.8l6.869-29.8h3.667l.179-.776.824-3.574.284-1.225h-8.375Zm9.068,16.226-1.65,7.333-.274,1.219h5.064l.183-.769,1.742-7.333.292-1.231h-5.182ZM278.822,82.4l5.4-23.474h25.2l.179-.775,7.149-30.883.283-1.226H293.759l5.31-22.924h78.765l-5.309,22.924H349.072l-.18.775L341.744,57.7l-.284,1.226h25.933L362,82.4Z" transform="translate(645.156 350)" fill="url(#linear-gradient)"/>
    </g>
  </g>
</svg>
